<svg xmlns="http://www.w3.org/2000/svg" viewBox="0 0 512 512">
  <defs>
    <linearGradient id="bg" x1="0%" y1="0%" x2="100%" y2="100%">
      <stop offset="0%" style="stop-color:#1a1a2e"/>
      <stop offset="100%" style="stop-color:#0f0f23"/>
    </linearGradient>
  </defs>
  <!-- Background -->
  <rect width="512" height="512" fill="url(#bg)" rx="64"/>
  <!-- Casino chip outer ring -->
  <circle cx="256" cy="256" r="200" fill="#e94560" stroke="#ff6b6b" stroke-width="8"/>
  <!-- Inner circle -->
  <circle cx="256" cy="256" r="160" fill="#1a1a2e"/>
  <!-- Decorative notches -->
  <g fill="#e94560">
    <rect x="248" y="56" width="16" height="40" rx="4"/>
    <rect x="248" y="416" width="16" height="40" rx="4"/>
    <rect x="56" y="248" width="40" height="16" rx="4"/>
    <rect x="416" y="248" width="40" height="16" rx="4"/>
    <rect x="113" y="100" width="16" height="40" rx="4" transform="rotate(45 121 120)"/>
    <rect x="383" y="100" width="16" height="40" rx="4" transform="rotate(-45 391 120)"/>
    <rect x="113" y="372" width="16" height="40" rx="4" transform="rotate(-45 121 392)"/>
    <rect x="383" y="372" width="16" height="40" rx="4" transform="rotate(45 391 392)"/>
  </g>
  <!-- Dollar sign -->
  <text x="256" y="290" font-family="Arial, sans-serif" font-size="140" font-weight="bold" fill="#e94560" text-anchor="middle">$</text>
  <!-- Stars -->
  <g fill="#f59e0b">
    <circle cx="180" cy="180" r="12"/>
    <circle cx="332" cy="180" r="12"/>
    <circle cx="180" cy="332" r="12"/>
    <circle cx="332" cy="332" r="12"/>
  </g>
</svg>
